<mxfile host="app.diagrams.net" agent="Mozilla/5.0 (Windows NT 10.0; Win64; x64; rv:138.0) Gecko/20100101 Firefox/138.0" version="27.0.5">
  <diagram name="Page-1" id="N_n4OvmsQ0NgpRcxIcMs">
    <mxGraphModel dx="925" dy="554" grid="1" gridSize="10" guides="1" tooltips="1" connect="1" arrows="1" fold="1" page="1" pageScale="1" pageWidth="3300" pageHeight="4681" math="0" shadow="0">
      <root>
        <mxCell id="0" />
        <mxCell id="1" parent="0" />
        <mxCell id="U1ZPMCOfEw5xqy0U93rn-3" style="edgeStyle=orthogonalEdgeStyle;rounded=0;orthogonalLoop=1;jettySize=auto;html=1;exitX=1;exitY=0.5;exitDx=0;exitDy=0;entryX=0;entryY=0.5;entryDx=0;entryDy=0;" edge="1" parent="1" source="U1ZPMCOfEw5xqy0U93rn-1" target="U1ZPMCOfEw5xqy0U93rn-2">
          <mxGeometry relative="1" as="geometry" />
        </mxCell>
        <mxCell id="U1ZPMCOfEw5xqy0U93rn-1" value="data&#xa;Raw Breast Cancer&#xa;+ Heart Disease&#xa;Dataset" style="rectangle;fillColor=#fff2cc;strokeColor=#d6b656;" name="data" vertex="1" parent="1">
          <mxGeometry x="340" y="230" width="100" height="50" as="geometry" />
        </mxCell>
        <mxCell id="U1ZPMCOfEw5xqy0U93rn-5" style="edgeStyle=orthogonalEdgeStyle;rounded=0;orthogonalLoop=1;jettySize=auto;html=1;exitX=1;exitY=0.5;exitDx=0;exitDy=0;entryX=0.5;entryY=0;entryDx=0;entryDy=0;" edge="1" parent="1" source="U1ZPMCOfEw5xqy0U93rn-2" target="U1ZPMCOfEw5xqy0U93rn-4">
          <mxGeometry relative="1" as="geometry" />
        </mxCell>
        <mxCell id="U1ZPMCOfEw5xqy0U93rn-2" value="transform" style="rounded=1;whiteSpace=wrap;html=1;arcSize=50;fillColor=#f8cecc;strokeColor=#b85450;" name="transform" vertex="1" parent="1">
          <mxGeometry x="520" y="230" width="100" height="50" as="geometry" />
        </mxCell>
        <mxCell id="U1ZPMCOfEw5xqy0U93rn-7" style="edgeStyle=orthogonalEdgeStyle;rounded=0;orthogonalLoop=1;jettySize=auto;html=1;exitX=0.5;exitY=1;exitDx=0;exitDy=0;entryX=1;entryY=0.5;entryDx=0;entryDy=0;" edge="1" parent="1" source="U1ZPMCOfEw5xqy0U93rn-4" target="U1ZPMCOfEw5xqy0U93rn-6">
          <mxGeometry relative="1" as="geometry" />
        </mxCell>
        <mxCell id="U1ZPMCOfEw5xqy0U93rn-4" value="data&#xa;Cleaned and&#xa;Preprocessed Data" style="rectangle;fillColor=#fff2cc;strokeColor=#d6b656;" name="data" vertex="1" parent="1">
          <mxGeometry x="650" y="330" width="100" height="50" as="geometry" />
        </mxCell>
        <mxCell id="U1ZPMCOfEw5xqy0U93rn-9" style="edgeStyle=orthogonalEdgeStyle;rounded=0;orthogonalLoop=1;jettySize=auto;html=1;exitX=0;exitY=0.5;exitDx=0;exitDy=0;entryX=0.5;entryY=0;entryDx=0;entryDy=0;" edge="1" parent="1" source="U1ZPMCOfEw5xqy0U93rn-6" target="U1ZPMCOfEw5xqy0U93rn-8">
          <mxGeometry relative="1" as="geometry" />
        </mxCell>
        <mxCell id="U1ZPMCOfEw5xqy0U93rn-6" value="transform" style="rounded=1;whiteSpace=wrap;html=1;arcSize=50;fillColor=#f8cecc;strokeColor=#b85450;" name="transform" vertex="1" parent="1">
          <mxGeometry x="520" y="430" width="100" height="50" as="geometry" />
        </mxCell>
        <mxCell id="U1ZPMCOfEw5xqy0U93rn-11" style="edgeStyle=orthogonalEdgeStyle;rounded=0;orthogonalLoop=1;jettySize=auto;html=1;exitX=0.5;exitY=1;exitDx=0;exitDy=0;entryX=0.5;entryY=0;entryDx=0;entryDy=0;" edge="1" parent="1" source="U1ZPMCOfEw5xqy0U93rn-8" target="U1ZPMCOfEw5xqy0U93rn-10">
          <mxGeometry relative="1" as="geometry" />
        </mxCell>
        <mxCell id="U1ZPMCOfEw5xqy0U93rn-8" value="data&#xa;Reduced Datasets" style="rectangle;fillColor=#fff2cc;strokeColor=#d6b656;" name="data" vertex="1" parent="1" tooltip="⚠️ Node not part of any valid pattern.">
          <mxGeometry x="390" y="530" width="100" height="50" as="geometry" />
        </mxCell>
        <mxCell id="U1ZPMCOfEw5xqy0U93rn-13" style="edgeStyle=orthogonalEdgeStyle;rounded=0;orthogonalLoop=1;jettySize=auto;html=1;exitX=0.5;exitY=1;exitDx=0;exitDy=0;entryX=0.5;entryY=0;entryDx=0;entryDy=0;" edge="1" parent="1" source="U1ZPMCOfEw5xqy0U93rn-10" target="U1ZPMCOfEw5xqy0U93rn-12">
          <mxGeometry relative="1" as="geometry" />
        </mxCell>
        <mxCell id="U1ZPMCOfEw5xqy0U93rn-10" value="infer:deduce" style="rounded=1;whiteSpace=wrap;html=1;arcSize=50;fillColor=#bac8d3;strokeColor=#23445d;" name="infer:deduce" vertex="1" parent="1" tooltip="⚠️ Node not part of any valid pattern.">
          <mxGeometry x="390" y="660" width="100" height="50" as="geometry" />
        </mxCell>
        <mxCell id="U1ZPMCOfEw5xqy0U93rn-15" style="edgeStyle=orthogonalEdgeStyle;rounded=0;orthogonalLoop=1;jettySize=auto;html=1;exitX=0.5;exitY=1;exitDx=0;exitDy=0;entryX=0;entryY=0.5;entryDx=0;entryDy=0;" edge="1" parent="1" source="U1ZPMCOfEw5xqy0U93rn-12" target="U1ZPMCOfEw5xqy0U93rn-14">
          <mxGeometry relative="1" as="geometry" />
        </mxCell>
        <mxCell id="U1ZPMCOfEw5xqy0U93rn-12" value="symbol&#xa;Fuzzy Rules" style="rectangle;fillColor=#dae8fc;strokeColor=#6c8ebf;" name="symbol" vertex="1" parent="1" tooltip="⚠️ Node not part of any valid pattern.">
          <mxGeometry x="390" y="790" width="100" height="50" as="geometry" />
        </mxCell>
        <mxCell id="U1ZPMCOfEw5xqy0U93rn-18" style="edgeStyle=orthogonalEdgeStyle;rounded=0;orthogonalLoop=1;jettySize=auto;html=1;exitX=1;exitY=0.5;exitDx=0;exitDy=0;entryX=0.5;entryY=0;entryDx=0;entryDy=0;" edge="1" parent="1" source="U1ZPMCOfEw5xqy0U93rn-14" target="U1ZPMCOfEw5xqy0U93rn-16">
          <mxGeometry relative="1" as="geometry" />
        </mxCell>
        <mxCell id="U1ZPMCOfEw5xqy0U93rn-14" value="infer:deduce" style="rounded=1;whiteSpace=wrap;html=1;arcSize=50;fillColor=#bac8d3;strokeColor=#23445d;" name="infer:deduce" vertex="1" parent="1" tooltip="⚠️ Node not part of any valid pattern.">
          <mxGeometry x="520" y="890" width="100" height="50" as="geometry" />
        </mxCell>
        <mxCell id="U1ZPMCOfEw5xqy0U93rn-20" style="edgeStyle=orthogonalEdgeStyle;rounded=0;orthogonalLoop=1;jettySize=auto;html=1;exitX=0.5;exitY=1;exitDx=0;exitDy=0;entryX=0.5;entryY=0;entryDx=0;entryDy=0;" edge="1" parent="1" source="U1ZPMCOfEw5xqy0U93rn-16" target="U1ZPMCOfEw5xqy0U93rn-19">
          <mxGeometry relative="1" as="geometry" />
        </mxCell>
        <mxCell id="U1ZPMCOfEw5xqy0U93rn-16" value="symbol&#xa;Optimized Rules" style="rectangle;fillColor=#dae8fc;strokeColor=#6c8ebf;" name="symbol" vertex="1" parent="1">
          <mxGeometry x="650" y="990" width="100" height="50" as="geometry" />
        </mxCell>
        <mxCell id="U1ZPMCOfEw5xqy0U93rn-22" style="edgeStyle=orthogonalEdgeStyle;rounded=0;orthogonalLoop=1;jettySize=auto;html=1;exitX=1;exitY=0.5;exitDx=0;exitDy=0;entryX=0.5;entryY=0;entryDx=0;entryDy=0;" edge="1" parent="1" source="U1ZPMCOfEw5xqy0U93rn-19" target="U1ZPMCOfEw5xqy0U93rn-21">
          <mxGeometry relative="1" as="geometry" />
        </mxCell>
        <mxCell id="U1ZPMCOfEw5xqy0U93rn-19" value="generate:train" style="rounded=1;whiteSpace=wrap;html=1;arcSize=50;fillColor=#e1d5e7;strokeColor=#9673a6;" name="generate:train" vertex="1" parent="1">
          <mxGeometry x="650" y="1120" width="100" height="50" as="geometry" />
        </mxCell>
        <mxCell id="U1ZPMCOfEw5xqy0U93rn-24" style="edgeStyle=orthogonalEdgeStyle;rounded=0;orthogonalLoop=1;jettySize=auto;html=1;exitX=1;exitY=0.5;exitDx=0;exitDy=0;entryX=0;entryY=0.5;entryDx=0;entryDy=0;" edge="1" parent="1" source="U1ZPMCOfEw5xqy0U93rn-21" target="U1ZPMCOfEw5xqy0U93rn-23">
          <mxGeometry relative="1" as="geometry" />
        </mxCell>
        <mxCell id="U1ZPMCOfEw5xqy0U93rn-21" value="model:hybrid&#xa;GSAM System" style="shape=hexagon;perimeter=hexagonPerimeter2;fillColor=#b0e3e6;strokeColor=#0e8088;" name="model" vertex="1" parent="1">
          <mxGeometry x="770" y="1220" width="120" height="50" as="geometry" />
        </mxCell>
        <mxCell id="U1ZPMCOfEw5xqy0U93rn-28" style="edgeStyle=orthogonalEdgeStyle;rounded=0;orthogonalLoop=1;jettySize=auto;html=1;exitX=1;exitY=0.5;exitDx=0;exitDy=0;entryX=0;entryY=0.5;entryDx=0;entryDy=0;" edge="1" parent="1" source="U1ZPMCOfEw5xqy0U93rn-23" target="U1ZPMCOfEw5xqy0U93rn-27">
          <mxGeometry relative="1" as="geometry" />
        </mxCell>
        <mxCell id="U1ZPMCOfEw5xqy0U93rn-23" value="infer:deduce" style="rounded=1;whiteSpace=wrap;html=1;arcSize=50;fillColor=#bac8d3;strokeColor=#23445d;" name="infer:deduce" vertex="1" parent="1">
          <mxGeometry x="970" y="1220" width="100" height="50" as="geometry" />
        </mxCell>
        <mxCell id="U1ZPMCOfEw5xqy0U93rn-26" style="edgeStyle=orthogonalEdgeStyle;rounded=0;orthogonalLoop=1;jettySize=auto;html=1;exitX=0.5;exitY=0;exitDx=0;exitDy=0;entryX=0.5;entryY=1;entryDx=0;entryDy=0;" edge="1" parent="1" source="U1ZPMCOfEw5xqy0U93rn-25" target="U1ZPMCOfEw5xqy0U93rn-23">
          <mxGeometry relative="1" as="geometry" />
        </mxCell>
        <mxCell id="U1ZPMCOfEw5xqy0U93rn-25" value="data&#xa;Patient Data" style="rectangle;fillColor=#fff2cc;strokeColor=#d6b656;" name="data" vertex="1" parent="1">
          <mxGeometry x="970" y="1350" width="100" height="50" as="geometry" />
        </mxCell>
        <mxCell id="U1ZPMCOfEw5xqy0U93rn-27" value="symbol&#xa;Clinical Diagnosis" style="rectangle;fillColor=#dae8fc;strokeColor=#6c8ebf;" name="symbol" vertex="1" parent="1">
          <mxGeometry x="1150" y="1220" width="100" height="50" as="geometry" />
        </mxCell>
        <mxCell id="U1ZPMCOfEw5xqy0U93rn-29" value="error" style="text;html=1;align=center;verticalAlign=middle;whiteSpace=wrap;rounded=0;dashed=1;fillColor=#f5f5f5;fontColor=#333333;strokeColor=#666666;strokeWidth=2;" name="text" vertex="1" parent="1">
          <mxGeometry x="510" y="670" width="40" height="30" as="geometry" />
        </mxCell>
        <mxCell id="U1ZPMCOfEw5xqy0U93rn-30" value="error" style="text;html=1;align=center;verticalAlign=middle;whiteSpace=wrap;rounded=0;dashed=1;fillColor=#f5f5f5;fontColor=#333333;strokeColor=#666666;strokeWidth=2;" name="text" vertex="1" parent="1">
          <mxGeometry x="570" y="850" width="40" height="30" as="geometry" />
        </mxCell>
      </root>
    </mxGraphModel>
  </diagram>
</mxfile>
